<?xml version="1.0" encoding="UTF-8"?>
<svg width="50px" height="50px" viewBox="0 0 50 50" version="1.1" xmlns="http://www.w3.org/2000/svg" xmlns:xlink="http://www.w3.org/1999/xlink">
    <!-- Generator: Sketch 58 (84663) - https://sketch.com -->
    <title>next</title>
    <desc>Created with Sketch.</desc>
    <g id="Page-1" stroke="none" stroke-width="1" fill="none" fill-rule="evenodd">
        <g id="icons" transform="translate(0.000000, -66.000000)">
            <g id="next" transform="translate(0.000000, 66.000000)">
                <circle id="circle" fill="#47484B" cx="24.8104265" cy="24.8104265" r="24.8104265"></circle>
                <path d="M34.6829268,24.4998546 C34.6829268,24.8177137 34.5868343,25.1352822 34.4107621,25.3734584 L26.4110551,37.2851803 C26.1230704,37.7141303 25.6429004,38 25.083044,38 L20.2831026,38 C19.4030353,38 18.6829268,37.2851803 18.6829268,36.4115765 C18.6829268,36.0940081 18.7790194,35.7764398 18.9550915,35.5382635 L26.3630089,24.4998546 L18.9550915,13.4617365 C18.7790194,13.2235602 18.6829268,12.9059918 18.6829268,12.5881326 C18.6829268,11.7148196 19.4030353,11 20.2831026,11 L25.083044,11 C25.6429004,11 26.1230704,11.2858697 26.4110551,11.7148196 L34.4107621,23.6265415 C34.5868343,23.8647178 34.6829268,24.1822862 34.6829268,24.4998546 Z" id="Path" fill="#FFFFFF" fill-rule="nonzero"></path>
            </g>
        </g>
    </g>
</svg>